<svg version="1.1" xmlns="http://www.w3.org/2000/svg" xmlns:xlink="http://www.w3.org/1999/xlink" width="124.014" height="124.163">
 <g>
  <rect height="124.163" opacity="0" width="124.014" x="0" y="0"/>
  <path d="M4.43262 40.043C7.27148 40.043 8.81543 38.3994 8.81543 35.5605L8.81543 19.8223C8.81543 12.6504 12.6006 8.96484 19.5732 8.96484L35.6104 8.96484C38.4492 8.96484 40.0928 7.37109 40.0928 4.58203C40.0928 1.74316 38.4492 0.149414 35.6104 0.149414L19.374 0.149414C6.52441 0.149414 0 6.57422 0 19.3242L0 35.5605C0 38.3994 1.59375 40.043 4.43262 40.043ZM119.581 40.043C122.47 40.043 124.014 38.3994 124.014 35.5605L124.014 19.3242C124.014 6.67383 117.539 0.149414 104.64 0.149414L88.4033 0.149414C85.5645 0.149414 83.9209 1.74316 83.9209 4.58203C83.9209 7.37109 85.5645 8.96484 88.4033 8.96484L104.44 8.96484C111.264 8.96484 115.198 12.6504 115.198 19.8223L115.198 35.5605C115.198 38.3994 116.792 40.043 119.581 40.043ZM19.374 124.163L35.6104 124.163C38.4492 124.163 40.0928 122.569 40.0928 119.73C40.0928 116.941 38.4492 115.348 35.6104 115.348L19.5732 115.348C12.6006 115.348 8.81543 111.662 8.81543 104.49L8.81543 88.752C8.81543 85.9131 7.22168 84.2695 4.43262 84.2695C1.54395 84.2695 0 85.9131 0 88.752L0 104.988C0 117.738 6.52441 124.163 19.374 124.163ZM88.4033 124.163L104.64 124.163C117.539 124.163 124.014 117.639 124.014 104.988L124.014 88.752C124.014 85.9131 122.42 84.2695 119.581 84.2695C116.742 84.2695 115.198 85.9131 115.198 88.752L115.198 104.49C115.198 111.662 111.264 115.348 104.44 115.348L88.4033 115.348C85.5645 115.348 83.9209 116.941 83.9209 119.73C83.9209 122.569 85.5645 124.163 88.4033 124.163Z" fill="#ffffff" fill-opacity="0.85"/>
  <path d="M33.5186 93.3838L56.2295 93.3838C57.873 93.3838 59.0684 92.1885 59.0684 90.5449L59.0684 67.834C59.0684 66.2402 57.873 64.9951 56.2295 64.9951L33.5186 64.9951C31.9248 64.9951 30.6797 66.2402 30.6797 67.834L30.6797 90.5449C30.6797 92.1885 31.9248 93.3838 33.5186 93.3838ZM36.3076 87.7061L36.3076 70.623L53.3906 70.623L53.3906 87.7061ZM41.3379 82.7256L48.4102 82.7256L48.4102 75.6035L41.3379 75.6035ZM33.5186 59.3174L56.2295 59.3174C57.873 59.3174 59.0684 58.1221 59.0684 56.4785L59.0684 33.7676C59.0684 32.1738 57.873 30.9287 56.2295 30.9287L33.5186 30.9287C31.9248 30.9287 30.6797 32.1738 30.6797 33.7676L30.6797 56.4785C30.6797 58.1221 31.9248 59.3174 33.5186 59.3174ZM36.3076 53.6895L36.3076 36.6064L53.3906 36.6064L53.3906 53.6895ZM41.3379 48.6592L48.4102 48.6592L48.4102 41.5371L41.3379 41.5371ZM67.5352 59.3174L90.2461 59.3174C91.8896 59.3174 93.085 58.1221 93.085 56.4785L93.085 33.7676C93.085 32.1738 91.8896 30.9287 90.2461 30.9287L67.5352 30.9287C65.9414 30.9287 64.6963 32.1738 64.6963 33.7676L64.6963 56.4785C64.6963 58.1221 65.9414 59.3174 67.5352 59.3174ZM70.3242 53.6895L70.3242 36.6064L87.4072 36.6064L87.4072 53.6895ZM75.3545 48.6592L82.4268 48.6592L82.4268 41.5371L75.3545 41.5371ZM65.4932 92.5371L72.6152 92.5371L72.6152 85.415L65.4932 85.415ZM85.1162 92.5371L92.2383 92.5371L92.2383 85.415L85.1162 85.415ZM75.3047 82.7256L82.4268 82.7256L82.4268 75.6035L75.3047 75.6035ZM65.4932 72.8643L72.6152 72.8643L72.6152 65.792L65.4932 65.792ZM85.1162 72.8643L92.2383 72.8643L92.2383 65.792L85.1162 65.792Z" fill="#ffffff" fill-opacity="0.85"/>
 </g>
</svg>
